# Blender 5.2.0 LTS
# www.blender.org
o Object_12
v 0.210377 0.405108 1.708188
v 0.222186 0.537996 1.544351
v 0.350856 0.397270 1.628207
v -0.204630 0.195265 1.493576
v -0.357095 0.504033 1.183705
v -0.192432 0.498484 1.363828
v -0.236455 -0.296929 1.244452
v -0.022345 -0.374794 1.327094
v 0.005079 -0.548141 1.046480
v 0.745526 0.407887 0.676030
v 0.502054 0.811737 0.476957
v 0.738249 0.475731 0.455350
v 0.323133 -0.463459 0.803763
v 0.363657 -0.412488 1.029350
v 0.528412 -0.257816 0.995448
v -0.345611 0.943565 0.697384
v -0.633662 0.794204 0.630266
v -0.335634 1.053385 0.241153
v -0.043276 -0.604339 0.830603
v -0.042059 -0.423944 0.442924
v -0.481125 -0.500602 0.486727
v -0.490714 -0.424555 0.240037
v -0.738906 -0.220808 0.294238
v -0.051725 -0.375250 0.133025
v -0.098205 -0.121239 -0.276370
v -0.766311 0.621526 0.429108
v -0.860176 0.418078 0.152807
v -0.418887 0.957214 -0.125059
v 0.828581 0.137954 0.192858
v 0.598671 0.187691 0.005175
v 0.703419 -0.182892 -0.026944
v -0.427652 0.459827 -0.306622
v -0.053869 0.637644 -0.343242
v -0.094448 0.239714 -0.377985
v 0.298561 0.019936 -0.204619
v 0.581640 -0.242710 -0.147747
v 0.298561 0.019936 -0.204619
v 0.116071 0.371471 -0.231012
v -0.053869 0.637644 -0.343242
v 0.116071 0.371471 -0.231012
v 0.320206 0.561694 -0.065848
v 0.697753 -0.324303 0.154282
v 0.433440 -0.446212 0.266124
v 0.388527 -0.260024 0.371918
v -0.051725 -0.375250 0.133025
v 0.388527 -0.260024 0.371918
v 0.433440 -0.446212 0.266124
v 0.108295 -0.128047 -0.251326
v 0.393086 -0.391299 -0.232931
v 0.632421 -0.445106 -0.157198
v -0.003945 -0.671047 -0.152222
v -0.098205 -0.121239 -0.276370
v 0.092838 -0.508156 0.112064
v 0.206470 -0.503662 -0.303370
v -0.098205 -0.121239 -0.276370
v -0.003945 -0.671047 -0.152222
v 0.095061 -0.613652 0.191959
v -0.491921 0.748756 0.786055
v 0.828581 0.137954 0.192858
v 0.581962 0.539258 0.203664
v 0.598671 0.187691 0.005175
v 0.298561 0.019936 -0.204619
v -0.043276 -0.604339 0.830603
v -0.042059 -0.423944 0.442924
v 0.582388 0.635397 0.878965
v 0.315368 -0.806633 0.198816
v 0.211376 -0.931018 -0.025367
v 0.103232 -1.023657 0.139560
v -0.497095 -0.387054 0.826519
v -0.436878 -0.160252 1.134771
v 0.035577 0.376697 1.685917
v 0.035060 0.233881 1.728946
v -0.055079 0.215063 1.637400
v -0.072837 0.348384 1.601020
v 0.035577 0.376697 1.685917
v 0.209755 0.248342 1.754831
v 0.035060 0.233881 1.728946
v 0.372612 0.217433 1.677660
v 0.209167 0.105437 1.716829
v 0.024393 0.077021 1.705693
v 0.005163 0.513664 1.535165
v 0.241489 -0.010720 1.630291
v 0.020511 -0.054497 1.622343
v 0.342801 0.118248 1.673337
v 0.365894 0.047868 1.594798
v 0.428216 0.194759 1.592392
v 0.024393 0.077021 1.705693
v 0.020511 -0.054497 1.622343
v -0.131530 -0.052586 1.502087
v -0.069651 0.109165 1.625004
v 0.337054 -0.198715 1.355371
v -0.022345 -0.374794 1.327094
v 0.532086 0.095372 1.360082
v 0.467582 -0.048862 1.357235
v 0.444730 0.393504 1.521759
v 0.559302 0.342780 1.251385
v -0.303623 0.006113 1.369743
v 0.396181 0.601698 1.283792
v 0.352607 0.834997 1.018007
v 0.190975 0.804090 1.108241
v -0.740712 0.198380 0.848189
v -0.553711 0.352682 1.038750
v -0.033902 0.429379 1.567010
v 0.005163 0.513664 1.535165
v 0.584095 0.121294 0.719850
v 0.611263 -0.055416 0.901969
v 0.005079 -0.548141 1.046480
v -0.804964 -0.059791 0.552646
v -0.093479 0.742356 1.121850
v -0.045735 0.620636 1.327850
v 0.042286 1.024120 0.630288
v 0.394291 0.848736 0.484444
v -0.093479 0.742356 1.121850
v -0.345611 0.943565 0.697384
v 0.423090 -0.290337 0.668833
v 0.478748 -0.147168 0.455526
v 0.780256 -0.031283 0.404107
v -0.335634 1.053385 0.241153
v 0.050933 0.986332 0.215587
v 0.321039 0.791179 0.192966
v 0.388527 -0.260024 0.371918
v 0.210431 -0.301268 0.502673
v -0.051725 -0.375250 0.133025
v -0.707954 0.170550 -0.126948
v -0.418887 0.957214 -0.125059
v 0.062902 0.859436 -0.060298
v 0.780256 -0.031283 0.404107
v 0.108295 -0.128047 -0.251326
v 0.478748 -0.147168 0.455526
v 0.596068 -0.590045 -0.029309
v 0.408670 -0.625451 0.235944
v 0.408670 -0.625451 0.235944
v 0.244235 -0.834633 -0.162311
v 0.509572 -0.562700 -0.246369
v -0.046194 -0.861236 -0.080217
v 0.267390 -0.710960 0.384026
v 0.267390 -0.710960 0.384026
v -0.034513 -0.763723 0.333127
v -0.182329 -0.489607 -0.011540
v -0.184298 -0.609355 -0.199081
v 0.199950 -1.013683 0.338848
v 0.007473 -1.112900 0.243177
v 0.006408 -1.258470 0.407319
v 0.202124 -1.114176 0.476161
v -0.130989 -0.998370 0.231820
v -0.125652 -0.848462 0.413290
v -0.144340 -1.026209 0.573471
v -0.187086 -1.196059 0.429991
v 0.129997 -0.875121 0.517774
v 0.125157 -0.983436 0.617976
v 0.129997 -0.875121 0.517774
v 0.125157 -0.983436 0.617976
v -0.081801 -0.905185 0.127100
v -0.330723 -0.783708 0.011079
v -0.287959 -0.622158 0.210173
v -0.264377 -0.744478 -0.131832
v -0.411914 -0.606654 -0.257963
v -0.516989 -0.624937 -0.143759
v -0.184298 -0.609355 -0.199081
v -0.314601 -0.284163 -0.217178
v -0.527646 -0.348802 -0.127010
v -0.529731 -0.086551 -0.370209
v -0.315302 -0.085836 -0.443038
v -0.440152 -0.448189 -0.371335
v -0.300857 -0.387281 -0.384605
v -0.300298 -0.223978 -0.569800
v -0.435385 -0.260725 -0.569505
v -0.553920 -0.438957 -0.284937
v -0.547047 -0.214992 -0.512880
v -0.380226 -0.058115 -0.722617
v -0.480682 0.024935 -0.693773
v -0.290269 -0.385509 -0.109501
v -0.286035 -0.501065 -0.295637
v -0.469488 -0.491102 0.063654
v -0.286035 -0.501065 -0.295637
v -0.300857 -0.387281 -0.384605
v -0.300298 -0.223978 -0.569800
v -0.256226 0.063642 -0.557049
v -0.245827 -0.071670 -0.684270
v -0.457522 0.133163 -0.556575
v -0.245827 -0.071670 -0.684270
v -0.256226 0.063642 -0.557049
v -0.457522 0.133163 -0.556575
v -0.342521 0.332039 -0.730355
v -0.238416 0.278908 -0.731817
v -0.480682 0.024935 -0.693773
v -0.380226 -0.058115 -0.722617
v -0.324008 0.203390 -0.862701
v -0.388078 0.252418 -0.833312
v -0.245827 -0.071670 -0.684270
v -0.203506 0.155238 -0.843061
v -0.245827 -0.071670 -0.684270
v -0.203506 0.155238 -0.843061
v -0.045735 0.620636 1.327850
vn -0.1365 -0.5334 -0.8348
vn -0.1573 -0.7991 -0.5802
vn -0.5782 -0.4808 -0.6592
vn 0.7227 -0.1160 -0.6814
vn 0.6455 -0.4606 -0.6092
vn 0.6291 -0.5085 -0.5879
vn 0.5516 0.6055 -0.5737
vn 0.1169 0.7707 -0.6264
vn 0.0051 0.9230 -0.3848
vn -0.9573 -0.0966 -0.2725
vn -0.6915 -0.7095 0.1354
vn -0.9062 -0.4184 0.0615
vn -0.5448 0.8144 0.1999
vn -0.5347 0.7889 -0.3029
vn -0.8278 0.5437 -0.1384
vn 0.3172 -0.8700 -0.3774
vn 0.7175 -0.6148 -0.3274
vn 0.2715 -0.9590 0.0809
vn -0.0086 0.9999 0.0082
vn -0.2483 0.9245 0.2891
vn 0.4074 0.9120 0.0470
vn 0.3277 0.8453 0.4219
vn 0.7982 0.5414 0.2641
vn 0.3002 0.9533 -0.0319
vn 0.2639 0.3450 0.9007
vn 0.8932 -0.4340 -0.1178
vn 0.9560 -0.1791 0.2326
vn 0.3474 -0.7466 0.5673
vn -0.9373 -0.1442 0.3172
vn -0.5828 -0.3122 0.7503
vn -0.8785 0.0041 0.4778
vn 0.4472 -0.1073 0.8880
vn -0.2434 -0.3519 0.9039
vn -0.0709 0.0712 0.9949
vn -0.3673 -0.1212 0.9222
vn -0.4835 -0.1940 0.8536
vn -0.3653 -0.1251 0.9224
vn -0.5386 -0.1165 0.8344
vn -0.2398 -0.3515 0.9050
vn -0.5381 -0.1159 0.8349
vn -0.5829 -0.4264 0.6917
vn -0.8391 0.4472 -0.3098
vn -0.2276 0.3874 -0.8934
vn -0.3305 0.8312 -0.4471
vn 0.3192 0.9469 -0.0397
vn -0.3259 0.8289 -0.4547
vn -0.2171 0.3780 -0.9000
vn -0.1916 -0.0123 0.9814
vn -0.2734 -0.1927 0.9424
vn -0.7698 0.1702 0.6151
vn 0.2700 0.1856 0.9448
vn 0.2599 0.3550 0.8980
vn 0.5937 0.2570 -0.7626
vn 0.0450 0.1312 0.9903
vn 0.2742 0.3584 0.8924
vn 0.2254 0.1980 0.9539
vn 0.2463 -0.7228 -0.6457
vn 0.5598 -0.5781 -0.5936
vn -0.9361 -0.1511 0.3176
vn -0.6931 -0.5316 0.4868
vn -0.5811 -0.3159 0.7501
vn -0.3647 -0.1286 0.9222
vn -0.0028 1.0000 0.0083
vn -0.2435 0.9254 0.2903
vn -0.8556 -0.4600 -0.2375
vn -0.7836 0.5881 -0.2002
vn -0.3112 0.8759 0.3687
vn -0.2281 0.8649 0.4471
vn 0.6602 0.6555 -0.3666
vn 0.7433 0.3379 -0.5774
vn 0.4012 -0.4608 -0.7916
vn 0.4042 -0.0548 -0.9130
vn 0.6892 -0.0617 -0.7219
vn 0.6714 -0.3501 -0.6532
vn 0.4047 -0.4578 -0.7916
vn -0.1520 -0.0610 -0.9865
vn 0.4030 -0.0521 -0.9137
vn -0.6447 0.0075 -0.7644
vn -0.1681 0.3803 -0.9095
vn 0.3426 0.3293 -0.8799
vn 0.4099 -0.6825 -0.6051
vn -0.3073 0.6249 -0.7177
vn 0.2153 0.5887 -0.7791
vn -0.5425 0.3631 -0.7575
vn -0.6407 0.4818 -0.5979
vn -0.8505 0.0864 -0.5189
vn 0.3431 0.3271 -0.8805
vn 0.2120 0.5896 -0.7794
vn 0.6076 0.3827 -0.6960
vn 0.6770 0.1455 -0.7214
vn -0.4699 0.6850 -0.5567
vn 0.1218 0.7703 -0.6260
vn -0.9314 0.1420 -0.3350
vn -0.7643 0.4645 -0.4473
vn -0.7763 -0.4039 -0.4839
vn -0.9334 -0.2035 -0.2957
vn 0.7251 0.1578 -0.6704
vn -0.5990 -0.6593 -0.4545
vn -0.5173 -0.8023 -0.2978
vn -0.1181 -0.8836 -0.4532
vn 0.8978 -0.0015 -0.4404
vn 0.7803 -0.2140 -0.5876
vn 0.6310 -0.5095 -0.5851
vn 0.3966 -0.6888 -0.6069
vn -0.9100 0.3124 -0.2726
vn -0.9697 0.2443 -0.0055
vn 0.0103 0.9228 -0.3853
vn 0.9422 0.2915 -0.1650
vn 0.2999 -0.7958 -0.5261
vn 0.3673 -0.7536 -0.5452
vn -0.1470 -0.9742 -0.1712
vn -0.5276 -0.8448 0.0887
vn 0.3045 -0.7932 -0.5274
vn 0.3216 -0.8683 -0.3777
vn -0.7276 0.6193 0.2952
vn -0.6305 0.7128 -0.3072
vn -0.8445 0.3938 -0.3628
vn 0.2768 -0.9576 0.0798
vn -0.3207 -0.9215 0.2192
vn -0.5801 -0.7122 0.3953
vn -0.3357 0.8356 -0.4349
vn -0.4409 0.8481 0.2938
vn 0.3031 0.9524 -0.0318
vn 0.7190 0.1998 0.6656
vn 0.3535 -0.7443 0.5666
vn -0.4210 -0.7439 0.5190
vn -0.8422 0.3927 -0.3694
vn -0.1906 -0.0260 0.9813
vn -0.6302 0.7121 -0.3095
vn -0.8113 0.5837 -0.0324
vn -0.4876 0.1809 -0.8541
vn -0.4884 0.1769 -0.8545
vn -0.2278 0.6899 0.6871
vn -0.4653 0.3114 0.8285
vn 0.2234 0.7345 0.6407
vn -0.4698 -0.4018 -0.7860
vn -0.4625 -0.4063 -0.7881
vn 0.4899 -0.6416 -0.5903
vn -0.4466 -0.8796 -0.1637
vn -0.5333 -0.0820 0.8419
vn -0.8871 0.4567 0.0669
vn -0.0602 0.7323 0.6783
vn -0.1231 0.7257 0.6769
vn -0.9616 0.2198 0.1643
vn 0.8337 0.1600 0.5286
vn 0.7470 -0.5968 -0.2929
vn 0.7774 -0.4929 -0.3907
vn 0.8404 0.3089 0.4454
vn -0.4167 -0.5503 -0.7235
vn -0.4787 -0.6051 -0.6362
vn -0.4052 -0.5526 -0.7284
vn -0.4695 -0.6146 -0.6339
vn 0.6781 0.6846 0.2675
vn 0.6046 0.7883 -0.1146
vn 0.4602 -0.1806 -0.8693
vn 0.1666 0.7426 0.6487
vn 0.1993 0.6737 0.7116
vn 0.8213 0.5647 0.0813
vn -0.5182 -0.0536 0.8536
vn -0.7027 -0.5582 -0.4411
vn 0.6686 -0.4992 -0.5512
vn 0.6268 -0.5826 -0.5174
vn -0.7301 -0.3581 -0.5819
vn 0.1983 0.6564 0.7279
vn -0.8103 0.3628 0.4601
vn -0.7443 0.5122 0.4287
vn 0.1999 0.6381 0.7435
vn 0.9172 0.3084 0.2522
vn 0.8946 0.2141 0.3923
vn 0.2198 0.5041 0.8352
vn 0.8716 0.0207 0.4897
vn -0.5851 -0.7498 -0.3089
vn -0.7030 0.2014 0.6821
vn 0.5987 -0.3120 -0.7377
vn -0.6943 0.2063 0.6895
vn -0.8144 0.3595 0.4556
vn -0.7484 0.5092 0.4251
vn -0.7444 -0.2948 -0.5991
vn -0.7832 0.4756 0.4004
vn 0.5417 -0.6553 -0.5265
vn -0.7842 0.4686 0.4068
vn -0.7474 -0.2856 -0.5998
vn 0.5521 -0.6563 -0.5142
vn 0.4478 -0.7098 -0.5438
vn -0.6751 -0.3955 -0.6227
vn 0.8660 0.0194 0.4997
vn 0.2183 0.5005 0.8377
vn 0.2836 0.4193 0.8624
vn 0.8748 -0.0966 0.4747
vn -0.7847 0.4675 0.4070
vn -0.7638 0.3954 0.5102
vn -0.7816 0.4852 0.3920
vn -0.7629 0.4021 0.5062
vn 0.3733 -0.7507 -0.5451
vt 0.157332 0.677758
vt 0.141825 0.695423
vt 0.167593 0.697436
vt 0.635023 0.765136
vt 0.628304 0.829439
vt 0.655312 0.811234
vt 0.550291 0.723977
vt 0.556024 0.686191
vt 0.500828 0.677974
vt 0.221775 0.850628
vt 0.159381 0.845632
vt 0.209112 0.874651
vt 0.324771 0.703533
vt 0.299139 0.683715
vt 0.286358 0.716682
vt 0.614026 0.921969
vt 0.571789 0.896938
vt 0.545244 0.972723
vt 0.468185 0.692950
vt 0.409139 0.726191
vt 0.446498 0.771538
vt 0.428089 0.794345
vt 0.448352 0.811860
vt 0.377369 0.764621
vt 0.351492 0.844580
vt 0.525082 0.884907
vt 0.481023 0.873158
vt 0.473862 0.972777
vt 0.368148 0.646043
vt 0.422332 0.667422
vt 0.416245 0.613853
vt 0.419498 0.908307
vt 0.384374 0.957985
vt 0.365136 0.899347
vt 0.487440 0.652782
vt 0.448312 0.617763
vt 0.305461 0.900271
vt 0.341609 0.936250
vt 0.072233 0.951602
vt 0.108455 0.965198
vt 0.125504 0.921245
vt 0.387902 0.572523
vt 0.376711 0.513575
vt 0.344534 0.524905
vt 0.699572 0.372174
vt 0.658888 0.276327
vt 0.629733 0.308652
vt 0.524575 0.628493
vt 0.485212 0.605189
vt 0.442389 0.586825
vt 0.686387 0.456595
vt 0.732816 0.437953
vt 0.659962 0.381827
vt 0.508584 0.581041
vt 0.548470 0.603954
vt 0.530388 0.530729
vt 0.623760 0.392111
vt 0.599213 0.886434
vt 0.228899 0.906279
vt 0.173150 0.895881
vt 0.193803 0.932398
vt 0.156775 0.962766
vt 0.345736 0.666031
vt 0.356461 0.715428
vt 0.178614 0.803015
vt 0.428540 0.460967
vt 0.483615 0.483038
vt 0.475184 0.447445
vt 0.494639 0.757180
vt 0.544834 0.757624
vt 0.684693 0.758149
vt 0.673305 0.734548
vt 0.658488 0.746167
vt 0.667016 0.767232
vt 0.143065 0.656132
vt 0.174133 0.669325
vt 0.164240 0.643826
vt 0.187010 0.690791
vt 0.192094 0.664236
vt 0.189160 0.636728
vt 0.119334 0.672901
vt 0.212512 0.667672
vt 0.214135 0.633028
vt 0.197296 0.683934
vt 0.210499 0.689820
vt 0.196354 0.704736
vt 0.653576 0.715738
vt 0.630010 0.704661
vt 0.613271 0.730185
vt 0.645610 0.735007
vt 0.256642 0.675906
vt 0.282206 0.632079
vt 0.226311 0.733048
vt 0.241966 0.707765
vt 0.176240 0.718443
vt 0.204813 0.763039
vt 0.597098 0.757937
vt 0.152342 0.738021
vt 0.125888 0.761943
vt 0.107358 0.738745
vt 0.533837 0.817511
vt 0.581694 0.821833
vt 0.676139 0.779188
vt 0.685418 0.791498
vt 0.256810 0.813221
vt 0.273499 0.761546
vt 0.320941 0.645493
vt 0.490662 0.812652
vt 0.668632 0.862314
vt 0.678617 0.827214
vt 0.071447 0.789967
vt 0.128767 0.832052
vt 0.074362 0.715343
vt 0.025562 0.766157
vt 0.311167 0.767338
vt 0.301525 0.833180
vt 0.261413 0.875922
vt 0.022089 0.840703
vt 0.072147 0.852919
vt 0.117542 0.873869
vt 0.335392 0.791485
vt 0.337124 0.758572
vt 0.360089 0.760349
vt 0.437435 0.859846
vt 0.017168 0.906283
vt 0.076256 0.898673
vt 0.332067 0.600885
vt 0.327829 0.862937
vt 0.325858 0.544252
vt 0.427318 0.547230
vt 0.402519 0.496658
vt 0.601350 0.318038
vt 0.485509 0.510587
vt 0.465543 0.575405
vt 0.529872 0.492289
vt 0.395581 0.451385
vt 0.559526 0.331910
vt 0.565890 0.393337
vt 0.655395 0.489442
vt 0.691761 0.492429
vt 0.424750 0.438350
vt 0.462990 0.419834
vt 0.450796 0.392223
vt 0.420961 0.415733
vt 0.499776 0.407859
vt 0.534066 0.373730
vt 0.502243 0.354124
vt 0.477171 0.374609
vt 0.393218 0.433236
vt 0.390855 0.415087
vt 0.542832 0.329210
vt 0.526138 0.326510
vt 0.522381 0.441108
vt 0.584857 0.505000
vt 0.607353 0.480558
vt 0.573275 0.524553
vt 0.608719 0.566394
vt 0.623468 0.553650
vt 0.566030 0.549587
vt 0.694042 0.570278
vt 0.669494 0.580904
vt 0.691164 0.620566
vt 0.713877 0.605517
vt 0.631400 0.600347
vt 0.613860 0.606962
vt 0.636843 0.645919
vt 0.654166 0.639030
vt 0.648994 0.592155
vt 0.671645 0.632763
vt 0.670129 0.673059
vt 0.691015 0.672292
vt 0.676451 0.536238
vt 0.704331 0.528763
vt 0.644768 0.540156
vt 0.595419 0.578681
vt 0.715406 0.558788
vt 0.733754 0.588609
vt 0.733203 0.638957
vt 0.747227 0.614539
vt 0.712250 0.661523
vt 0.646307 0.673100
vt 0.733890 0.638149
vt 0.712450 0.661998
vt 0.734064 0.694486
vt 0.750700 0.676659
vt 0.690951 0.672130
vt 0.670639 0.673872
vt 0.695648 0.707084
vt 0.713961 0.701442
vt 0.646363 0.673522
vt 0.678780 0.713287
vt 0.747765 0.614351
vt 0.766298 0.656372
vt 0.095340 0.691736
s 1
f 1/1/1 2/2/2 3/3/3
f 4/4/4 5/5/5 6/6/6
f 7/7/7 8/8/8 9/9/9
f 10/10/10 11/11/11 12/12/12
f 13/13/13 14/14/14 15/15/15
f 16/16/16 17/17/17 18/18/18
f 19/19/19 20/20/20 21/21/21
f 21/21/21 22/22/22 23/23/23
f 22/22/22 24/24/24 25/25/25
f 26/26/26 27/27/27 28/28/28
f 29/29/29 30/30/30 31/31/31
f 28/28/28 32/32/32 33/33/33
f 34/34/34 33/33/33 32/32/32
f 30/30/30 35/35/35 36/36/36
f 37/37/37 38/38/38 34/34/34
f 30/30/30 36/36/36 31/31/31
f 39/39/39 40/40/40 41/41/41
f 42/42/42 43/43/43 44/44/44
f 45/45/45 46/46/46 47/47/47
f 48/48/48 49/49/49 35/35/35
f 35/35/35 49/49/49 36/36/36
f 31/31/31 36/36/36 50/50/50
f 49/49/49 50/50/50 36/36/36
f 45/45/45 51/51/51 52/52/52
f 53/53/53 45/45/45 47/47/47
f 54/54/54 55/55/55 56/56/56
f 51/51/51 53/53/53 57/57/57
f 58/58/58 17/17/17 16/16/16
f 34/34/34 38/38/38 33/33/33
f 59/59/59 60/60/60 61/61/61
f 62/62/62 41/41/41 40/40/40
f 48/48/48 54/54/54 49/49/49
f 54/54/54 48/48/48 55/55/55
f 61/61/61 41/41/41 62/62/62
f 63/63/63 13/13/13 64/64/64
f 53/53/53 51/51/51 45/45/45
f 10/10/10 65/65/65 11/11/11
f 66/66/66 67/67/67 68/68/68
f 9/9/9 69/69/69 7/7/7
f 69/69/69 70/70/70 7/7/7
f 71/71/71 72/72/72 73/73/73
f 71/71/71 73/73/73 74/74/74
f 75/75/75 1/1/1 76/76/76
f 75/75/75 76/76/76 77/77/77
f 76/76/76 1/1/1 3/3/3
f 76/76/76 3/3/3 78/78/78
f 77/77/77 76/76/76 79/79/79
f 77/77/77 79/79/79 80/80/80
f 1/1/1 75/75/75 81/81/81
f 1/1/1 81/81/81 2/2/2
f 80/80/80 79/79/79 82/82/82
f 80/80/80 82/82/82 83/83/83
f 82/82/82 79/79/79 84/84/84
f 82/82/82 84/84/84 85/85/85
f 84/84/84 79/79/79 76/76/76
f 84/84/84 76/76/76 78/78/78
f 85/85/85 84/84/84 78/78/78
f 85/85/85 78/78/78 86/86/86
f 87/87/87 88/88/88 89/89/89
f 87/87/87 89/89/89 90/90/90
f 72/72/72 87/87/87 90/90/90
f 72/72/72 90/90/90 73/73/73
f 83/83/83 82/82/82 91/91/91
f 83/83/83 91/91/91 92/92/92
f 85/85/85 86/86/86 93/93/93
f 85/85/85 93/93/93 94/94/94
f 85/85/85 94/94/94 91/91/91
f 85/85/85 91/91/91 82/82/82
f 93/93/93 86/86/86 95/95/95
f 93/93/93 95/95/95 96/96/96
f 95/95/95 86/86/86 78/78/78
f 95/95/95 78/78/78 3/3/3
f 90/90/90 89/89/89 97/97/97
f 90/90/90 97/97/97 4/4/4
f 97/97/97 89/89/89 7/7/7
f 97/97/97 7/7/7 70/70/70
f 7/7/7 89/89/89 88/88/88
f 7/7/7 88/88/88 8/8/8
f 95/95/95 3/3/3 2/2/2
f 95/95/95 2/2/2 98/98/98
f 99/99/99 98/98/98 2/2/2
f 99/99/99 2/2/2 100/100/100
f 97/97/97 70/70/70 101/101/101
f 97/97/97 101/101/101 102/102/102
f 73/73/73 90/90/90 4/4/4
f 73/73/73 4/4/4 74/74/74
f 5/5/5 4/4/4 97/97/97
f 5/5/5 97/97/97 102/102/102
f 71/71/71 74/74/74 103/103/103
f 71/71/71 103/103/103 104/104/104
f 96/96/96 65/65/65 10/10/10
f 96/96/96 10/10/10 105/105/105
f 94/94/94 93/93/93 106/106/106
f 94/94/94 106/106/106 15/15/15
f 106/106/106 93/93/93 96/96/96
f 106/106/106 96/96/96 105/105/105
f 92/92/92 91/91/91 14/14/14
f 92/92/92 14/14/14 107/107/107
f 14/14/14 91/91/91 94/94/94
f 14/14/14 94/94/94 15/15/15
f 101/101/101 70/70/70 69/69/69
f 101/101/101 69/69/69 108/108/108
f 6/6/6 5/5/5 109/109/109
f 6/6/6 109/109/109 110/110/110
f 102/102/102 101/101/101 26/26/26
f 102/102/102 26/26/26 17/17/17
f 109/109/109 5/5/5 58/58/58
f 109/109/109 58/58/58 16/16/16
f 58/58/58 5/5/5 102/102/102
f 58/58/58 102/102/102 17/17/17
f 99/99/99 100/100/100 111/111/111
f 99/99/99 111/111/111 112/112/112
f 111/111/111 100/100/100 113/113/113
f 111/111/111 113/113/113 114/114/114
f 11/11/11 65/65/65 99/99/99
f 11/11/11 99/99/99 112/112/112
f 115/115/115 106/106/106 105/105/105
f 115/115/115 105/105/105 116/116/116
f 13/13/13 15/15/15 106/106/106
f 13/13/13 106/106/106 115/115/115
f 107/107/107 14/14/14 13/13/13
f 107/107/107 13/13/13 63/63/63
f 108/108/108 69/69/69 21/21/21
f 108/108/108 21/21/21 23/23/23
f 21/21/21 69/69/69 9/9/9
f 21/21/21 9/9/9 19/19/19
f 116/116/116 105/105/105 10/10/10
f 116/116/116 10/10/10 117/117/117
f 117/117/117 10/10/10 12/12/12
f 117/117/117 12/12/12 59/59/59
f 111/111/111 114/114/114 118/118/118
f 111/111/111 118/118/118 119/119/119
f 11/11/11 112/112/112 120/120/120
f 11/11/11 120/120/120 60/60/60
f 120/120/120 112/112/112 111/111/111
f 120/120/120 111/111/111 119/119/119
f 11/11/11 60/60/60 59/59/59
f 11/11/11 59/59/59 12/12/12
f 115/115/115 116/116/116 121/121/121
f 115/115/115 121/121/121 122/122/122
f 64/64/64 13/13/13 115/115/115
f 64/64/64 115/115/115 122/122/122
f 21/21/21 20/20/20 24/24/24
f 21/21/21 24/24/24 22/22/22
f 123/123/123 64/64/64 122/122/122
f 123/123/123 122/122/122 121/121/121
f 108/108/108 23/23/23 124/124/124
f 108/108/108 124/124/124 27/27/27
f 108/108/108 27/27/27 26/26/26
f 108/108/108 26/26/26 101/101/101
f 22/22/22 25/25/25 124/124/124
f 22/22/22 124/124/124 23/23/23
f 119/119/119 118/118/118 125/125/125
f 119/119/119 125/125/125 126/126/126
f 28/28/28 18/18/18 17/17/17
f 28/28/28 17/17/17 26/26/26
f 124/124/124 25/25/25 34/34/34
f 124/124/124 34/34/34 32/32/32
f 124/124/124 32/32/32 28/28/28
f 124/124/124 28/28/28 27/27/27
f 60/60/60 120/120/120 41/41/41
f 60/60/60 41/41/41 61/61/61
f 41/41/41 120/120/120 119/119/119
f 41/41/41 119/119/119 126/126/126
f 127/127/127 29/29/29 31/31/31
f 127/127/127 31/31/31 42/42/42
f 126/126/126 125/125/125 39/39/39
f 126/126/126 39/39/39 41/41/41
f 25/25/25 128/128/128 37/37/37
f 25/25/25 37/37/37 34/34/34
f 127/127/127 42/42/42 44/44/44
f 127/127/127 44/44/44 129/129/129
f 42/42/42 31/31/31 50/50/50
f 42/42/42 50/50/50 130/130/130
f 43/43/43 42/42/42 130/130/130
f 43/43/43 130/130/130 131/131/131
f 47/47/47 132/132/132 57/57/57
f 47/47/47 57/57/57 53/53/53
f 54/54/54 56/56/56 133/133/133
f 54/54/54 133/133/133 134/134/134
f 49/49/49 54/54/54 134/134/134
f 49/49/49 134/134/134 50/50/50
f 130/130/130 50/50/50 134/134/134
f 130/130/130 134/134/134 133/133/133
f 130/130/130 133/133/133 67/67/67
f 130/130/130 67/67/67 66/66/66
f 133/133/133 56/56/56 135/135/135
f 133/133/133 135/135/135 67/67/67
f 131/131/131 130/130/130 66/66/66
f 131/131/131 66/66/66 136/136/136
f 57/57/57 132/132/132 137/137/137
f 57/57/57 137/137/137 138/138/138
f 51/51/51 57/57/57 139/139/139
f 51/51/51 139/139/139 140/140/140
f 141/141/141 142/142/142 143/143/143
f 141/141/141 143/143/143 144/144/144
f 145/145/145 146/146/146 147/147/147
f 145/145/145 147/147/147 148/148/148
f 149/149/149 141/141/141 144/144/144
f 149/149/149 144/144/144 150/150/150
f 142/142/142 145/145/145 148/148/148
f 142/142/142 148/148/148 143/143/143
f 146/146/146 151/151/151 152/152/152
f 146/146/146 152/152/152 147/147/147
f 138/138/138 153/153/153 154/154/154
f 138/138/138 154/154/154 155/155/155
f 57/57/57 138/138/138 155/155/155
f 57/57/57 155/155/155 139/139/139
f 153/153/153 135/135/135 156/156/156
f 153/153/153 156/156/156 154/154/154
f 154/154/154 156/156/156 157/157/157
f 154/154/154 157/157/157 158/158/158
f 67/67/67 135/135/135 153/153/153
f 67/67/67 153/153/153 68/68/68
f 156/156/156 135/135/135 56/56/56
f 156/156/156 56/56/56 159/159/159
f 160/160/160 161/161/161 162/162/162
f 160/160/160 162/162/162 163/163/163
f 164/164/164 165/165/165 166/166/166
f 164/164/164 166/166/166 167/167/167
f 168/168/168 164/164/164 167/167/167
f 168/168/168 167/167/167 169/169/169
f 161/161/161 168/168/168 169/169/169
f 161/161/161 169/169/169 162/162/162
f 169/169/169 167/167/167 170/170/170
f 169/169/169 170/170/170 171/171/171
f 140/140/140 139/139/139 172/172/172
f 140/140/140 172/172/172 173/173/173
f 139/139/139 155/155/155 174/174/174
f 139/139/139 174/174/174 172/172/172
f 155/155/155 154/154/154 158/158/158
f 155/155/155 158/158/158 174/174/174
f 156/156/156 159/159/159 175/175/175
f 156/156/156 175/175/175 157/157/157
f 160/160/160 176/176/176 173/173/173
f 160/160/160 173/173/173 172/172/172
f 174/174/174 158/158/158 168/168/168
f 174/174/174 168/168/168 161/161/161
f 164/164/164 168/168/168 158/158/158
f 164/164/164 158/158/158 157/157/157
f 161/161/161 160/160/160 172/172/172
f 161/161/161 172/172/172 174/174/174
f 165/165/165 164/164/164 157/157/157
f 165/165/165 157/157/157 175/175/175
f 176/176/176 160/160/160 163/163/163
f 176/176/176 163/163/163 177/177/177
f 177/177/177 163/163/163 178/178/178
f 177/177/177 178/178/178 179/179/179
f 163/163/163 162/162/162 180/180/180
f 163/163/163 180/180/180 178/178/178
f 162/162/162 169/169/169 171/171/171
f 162/162/162 171/171/171 180/180/180
f 167/167/167 166/166/166 181/181/181
f 167/167/167 181/181/181 170/170/170
f 182/182/182 183/183/183 184/184/184
f 182/182/182 184/184/184 185/185/185
f 186/186/186 187/187/187 188/188/188
f 186/186/186 188/188/188 189/189/189
f 187/187/187 190/190/190 191/191/191
f 187/187/187 191/191/191 188/188/188
f 183/183/183 186/186/186 189/189/189
f 183/183/183 189/189/189 184/184/184
f 192/192/192 182/182/182 185/185/185
f 192/192/192 185/185/185 193/193/193
f 138/138/138 137/137/137 151/151/151
f 138/138/138 151/151/151 146/146/146
f 68/68/68 153/153/153 145/145/145
f 68/68/68 145/145/145 142/142/142
f 136/136/136 66/66/66 141/141/141
f 136/136/136 141/141/141 149/149/149
f 153/153/153 138/138/138 146/146/146
f 153/153/153 146/146/146 145/145/145
f 66/66/66 68/68/68 142/142/142
f 66/66/66 142/142/142 141/141/141
f 65/65/65 98/98/98 99/99/99
f 98/98/98 65/65/65 96/96/96
f 98/98/98 96/96/96 95/95/95
f 100/100/100 194/194/194 113/113/113
f 194/194/194 100/100/100 81/81/81
f 81/81/81 100/100/100 2/2/2
f 104/104/104 6/6/6 110/110/110
f 6/6/6 104/104/104 4/4/4
f 4/4/4 104/104/104 103/103/103
f 4/4/4 103/103/103 74/74/74
